<?xml version="1.0" encoding="utf-8"?>
<!-- Generator: Adobe Illustrator 18.0.0, SVG Export Plug-In . SVG Version: 6.00 Build 0)  -->
<!DOCTYPE svg PUBLIC "-//W3C//DTD SVG 1.1//EN" "http://www.w3.org/Graphics/SVG/1.1/DTD/svg11.dtd">
<svg version="1.1" id="Capa_1" xmlns="http://www.w3.org/2000/svg" xmlns:xlink="http://www.w3.org/1999/xlink" x="0px" y="0px"
	 viewBox="0 0 240 120" enable-background="new 0 0 240 120" xml:space="preserve">
<g>
	<rect x="-1.3" y="-1.5" fill="#212121" width="242.3" height="123"/>
	<g>
		<path fill="#8B2332" d="M70.1,52.6c-7-4-15.1-8.4-23.2-9c-8.2-0.6-15.8,0.5-23.2,4.2c-6.2,3.1-10.2,7.5-15,11.9
			c-1.3,1.2-2.3,2.2-2.3,2.2l80.8,0l-1-0.5C80.8,58.5,75.4,55.6,70.1,52.6z"/>
		<path fill="#FFD923" d="M97.8,36.2c16.6,4.6,32.7,11.4,49.4,15.5c5.8,1.4,11.8,2.5,17.6,2c0-0.6,0-1.2,0-1.9
			c0-22.1-19.5-40-43.7-40c-16.6,0-31,8.4-38.4,20.9C87.9,33.7,92.9,34.9,97.8,36.2z"/>
		<g>
			<path fill="#648C1A" d="M6.4,61.9c10.8-14,25.1-27.6,43.4-30.3c15.9-2.4,32.5,0.4,47.9,4.6c16.6,4.6,32.7,11.4,49.4,15.5
				c12,3,25.5,4.3,34.1-6.5c-13,37.2-61.6,33.6-89.7,18.8c-7.1-3.7-14.2-7.5-21.2-11.4c-7-4-15.1-8.4-23.2-9
				c-8.2-0.6-15.8,0.5-23.2,4.2C16.6,51.4,12.4,56.7,6.4,61.9z"/>
			<g enable-background="new    ">
				<path fill="#FFFFFF" d="M36.7,86.3c0.2,0,0.3,0.2,0.3,0.5c0,3.9-5.6,9.8-9.3,9.8c-2.9,0-4.7-1.8-4.7-5.7c0-1.3,0.1-3.2,0.3-4.4
					c-4,6.6-7.8,10-11.3,10.1h-0.6c-4.2,0-5.7-3.2-5.7-7.6c0.2-10.4,8.2-22.2,16.7-22.2c2.1,0,3.8,0.4,5.2,1.5
					c0.8-0.9,2-1.4,3.3-1.4c1.6,0,3.2,0.5,4.7,1.3c-2,3-5.2,16.3-5.2,20.4c0,1.1,0.4,1.8,0.6,2.3c0.6-0.1,1.6-0.9,2.6-1.9
					C35.1,87.2,36.2,86.3,36.7,86.3z M26,74c-0.6-2.2-2.6-3.1-4.2-3.1c-4.2,0-8.4,10.3-8.4,17.3c0.1,1.9,0.6,2.8,1.7,2.8
					s2.7-1.8,4.8-5C22.5,82.1,24.9,77.3,26,74z"/>
				<path fill="#FFFFFF" d="M64,103.1c-0.3,0-1.2-0.6-2.4-1.2c0.1,0-2.9-1.3-4.4-1.8c-2.7,4.5-7.4,7.1-13.3,7.1
					c-5.9,0-11.7-2.6-11.7-5.4c0-2.2,2-5.3,10.3-5.3c3,0,6.2,0.3,8.8,0.9c1-2.8,2-6.9,3.1-12.4c-4.5,6.6-8.9,9-12.5,9
					c-3.8,0-5.2-3.2-5.2-7.4c0-9.7,7.1-19.7,16.3-19.7c2,0,3.9,0.5,5.6,1.5c1-0.9,2.3-1.3,3.6-1.3c1.3,0,2.7,0.4,4.2,1.2
					c-1.4,2.1-2.3,5.1-3.7,11.2c-1,5.2-2.1,10.2-2.9,13.4c-0.7,2.8-1.5,4.8-2.2,6.4c1.2,0.5,3,1.3,4.3,2.3
					C63.5,102.4,64,103,64,103.1z M50.9,98.4c-2.4-0.5-5.5-0.8-8.3-0.8c-2,0-5.1-0.1-5.1,1.3c0,0.2,0.1,0.3,0.2,0.5
					c1.6,2.3,4.1,3.7,6.9,3.7c2,0,3.5-0.7,4.7-2C49.8,100.5,50.3,99.6,50.9,98.4z M57.1,73.7c-0.2-1.4-2.6-2.9-4.5-2.9
					c-4.5,0-8.1,7.6-8.1,15c0,1.6,0.7,2.4,1.6,2.4C49.3,88.2,54.3,80.8,57.1,73.7z"/>
				<path fill="#FFFFFF" d="M88.6,66.9c1.6,0,2.2,1,2.2,2.6c0,2.5-1.5,5.2-3.6,7.6c-0.5-0.9-1.2-1.3-2-1.3c-4.2,0-7.5,8.3-11.2,17.7
					c-0.7,1.9-1.7,3-4.3,3c-1.1,0-2.4-0.2-4.1-0.5c4.1-10.6,5.9-20.2,5.9-24c0-1.4-0.2-2.6-0.6-3.6c2.3-1,4.2-1.5,5.5-1.5
					c1.6,0,2.8,1,2.8,2.7c0,2.2-0.8,5.3-1.7,8.9c4-7.1,7.7-11.6,10.8-11.7C88.4,66.9,88.5,66.9,88.6,66.9z"/>
				<path fill="#FFFFFF" d="M106.4,66.8c5.8,0,9.7,3.6,9.7,9.6c0,10.1-7.7,20.4-17.1,20.4c-5.8,0-9.7-3.8-9.7-10
					c0-5.2,1.8-9.9,5.1-13.9C97.7,69.1,101.8,66.8,106.4,66.8z M104.9,70.8c-4.7,0-7.8,10.3-7.8,16.5c0,3.2,1,5.5,3.5,5.5
					c4.6,0,7.7-10.2,7.7-16.4C108.2,73.2,107.4,70.8,104.9,70.8z"/>
				<path fill="#FFFFFF" d="M151.2,84.5c1.3-6,2-9.5,2-10.1c0-0.7-0.3-0.9-0.8-0.9c-2.4,0-10.6,13.5-11.8,20.5
					c0,0.4,0.1,0.8,0.2,1.2c-0.5,0.4-2.4,1.1-3.7,1.1c-1.5,0-2.7-0.5-3.7-1.6c2.4-10.4,4.4-18.4,4.4-20.4c0-0.8-0.3-1-0.8-1
					c-1.4,0.1-4.2,4-6.8,8c-1.7,2.6-2.8,5.6-5.4,12c-0.8,1.9-1.6,3-4.3,3c-1.1,0-2.4-0.2-4.1-0.5c4.2-10.5,6-20.4,6-24
					c0-1.3-0.2-2.5-0.6-3.6c2.3-1,4.2-1.5,5.5-1.5c1.6,0,2.9,1,2.9,2.6c0,2-0.8,5.2-1.7,8.9c4.9-7.7,10-11.7,13.2-11.7
					c2,0,3.6,1.1,3.6,3.5c0,2.7-0.4,5.8-1.2,8.1c4.9-7.9,10-11.6,13.1-11.6c2.1,0,3.6,1.8,3.6,3.9c0,5.9-3.3,14.4-3.3,18
					c0,1.1,0.3,1.8,0.5,2.3c1.5-0.3,5.2-4.6,5.8-4.6c0.2,0,0.3,0.2,0.3,0.5c0,3.9-5.6,9.8-9.4,9.8c-2.9,0-4.6-1.5-4.6-4.8
					C150,89.5,150.7,86.9,151.2,84.5z"/>
				<path fill="#FFFFFF" d="M194.2,86.3c0.2,0,0.3,0.2,0.3,0.5c0,3.9-5.6,9.8-9.3,9.8c-2.9,0-4.7-1.8-4.7-5.7c0-1.3,0.1-3.2,0.3-4.4
					c-4,6.6-7.8,10-11.3,10.1h-0.6c-4.2,0-5.7-3.2-5.7-7.6c0.2-10.4,8.2-22.2,16.7-22.2c2.1,0,3.8,0.4,5.2,1.5
					c0.8-0.9,2-1.4,3.3-1.4c1.6,0,3.2,0.5,4.7,1.3c-2,3-5.2,16.3-5.2,20.4c0,1.1,0.4,1.8,0.6,2.3C189,90.8,190,90,191,89
					C192.6,87.2,193.7,86.3,194.2,86.3z M183.5,74c-0.6-2.2-2.6-3.1-4.2-3.1c-4.2,0-8.4,10.3-8.4,17.3c0.1,1.9,0.6,2.8,1.7,2.8
					s2.7-1.8,4.8-5C180,82.1,182.3,77.3,183.5,74z"/>
				<path fill="#FFFFFF" d="M215.8,66.9c1.6,0,2.2,1,2.2,2.6c0,2.5-1.5,5.2-3.6,7.6c-0.5-0.9-1.2-1.3-2-1.3
					c-4.2,0-7.5,8.3-11.2,17.7c-0.7,1.9-1.7,3-4.3,3c-1.1,0-2.4-0.2-4.1-0.5c4.1-10.6,5.9-20.2,5.9-24c0-1.4-0.2-2.6-0.6-3.6
					c2.3-1,4.2-1.5,5.5-1.5c1.6,0,2.8,1,2.8,2.7c0,2.2-0.8,5.3-1.7,8.9c4-7.1,7.7-11.6,10.8-11.7C215.6,66.9,215.7,66.9,215.8,66.9z
					"/>
				<path fill="#FFFFFF" d="M236.2,69.8c0,2.5-2,4.3-4.4,4.3c-1.1,0-2.1-0.1-3-0.1c-0.4,0-0.8,0-1.2,0.1c-0.5,2.6-1.2,5.5-1.9,8.3
					c-0.4,1.6-0.8,4-0.8,5.8c0.1,1.7,0.8,2.6,2.1,2.6c0.6,0,1.7-1,2.7-2c1.7-1.8,2.7-2.7,3.2-2.7c0.2,0,0.3,0.2,0.3,0.5
					c0,3.9-5.5,9.8-9.3,9.8c-4.4,0-6.1-2.7-6.1-7c0-1.1,0.2-2.2,0.3-3.3c0.5-3.2,0.7-4.1,1.7-8.6c1.2-4.5,2.4-10.1,2.4-13.2
					c0-1-0.1-1.9-0.6-3c2.2-1.3,4-1.8,5.7-1.8c1.7,0,2.6,1,2.6,2.6c0-0.2-0.3,2.4-1.3,7.7h2.7c1.6,0,3.2-0.1,5-0.4
					C236.2,69.6,236.2,69.7,236.2,69.8z"/>
			</g>
		</g>
	</g>
</g>
</svg>
